<svg width="29" height="30" viewBox="0 0 29 30" fill="none" xmlns="http://www.w3.org/2000/svg">
<mask id="mask0_10_825" style="mask-type:alpha" maskUnits="userSpaceOnUse" x="1" y="4" width="26" height="26">
<path d="M14.1428 30.0001C21.2436 30.0001 26.9999 24.2437 26.9999 17.1429C26.9999 10.0421 21.2436 4.28577 14.1428 4.28577C7.04198 4.28577 1.28564 10.0421 1.28564 17.1429C1.28564 24.2437 7.04198 30.0001 14.1428 30.0001Z" fill="white"/>
</mask>
<g mask="url(#mask0_10_825)">
<path d="M14.1428 30.0001C21.2436 30.0001 26.9999 24.2437 26.9999 17.1429C26.9999 10.0421 21.2436 4.28577 14.1428 4.28577C7.04198 4.28577 1.28564 10.0421 1.28564 17.1429C1.28564 24.2437 7.04198 30.0001 14.1428 30.0001Z" fill="#E6E6E6"/>
<path d="M26.9999 4.28577H1.28564V30.0001H26.9999V4.28577Z" fill="#65C9FF"/>
</g>
<mask id="mask1_10_825" style="mask-type:alpha" maskUnits="userSpaceOnUse" x="0" y="0" width="29" height="30">
<path d="M1.28571 17.1429C1.28571 24.2437 7.04205 30 14.1429 30C21.2437 30 27 24.2437 27 17.1429H28.2857V0H0V17.1429H1.28571Z" fill="white"/>
</mask>
<g mask="url(#mask1_10_825)">
<mask id="mask2_10_825" style="mask-type:alpha" maskUnits="userSpaceOnUse" x="3" y="3" width="22" height="27">
<path d="M16.7144 19.3512V21.3215H17.143C21.4035 21.3215 24.8573 24.7753 24.8573 29.0357V30H3.42871V29.0357C3.42871 24.7753 6.88251 21.3215 11.143 21.3215H11.5716V19.3512C9.72471 18.4739 8.39716 16.6808 8.17569 14.5587C7.5516 14.4705 7.07157 13.9342 7.07157 13.2857V11.7857C7.07157 11.1487 7.53492 10.6198 8.143 10.5178V9.85718C8.143 6.54347 10.8293 3.85718 14.143 3.85718C17.4567 3.85718 20.143 6.54347 20.143 9.85718V10.5178C20.7511 10.6198 21.2144 11.1487 21.2144 11.7857V13.2857C21.2144 13.9342 20.7344 14.4705 20.1103 14.5587C19.8888 16.6808 18.5613 18.4739 16.7144 19.3512Z" fill="white"/>
</mask>
<g mask="url(#mask2_10_825)">
<path d="M16.7144 19.3512V21.3215H17.143C21.4035 21.3215 24.8573 24.7753 24.8573 29.0357V30H3.42871V29.0357C3.42871 24.7753 6.88251 21.3215 11.143 21.3215H11.5716V19.3512C9.72471 18.4739 8.39716 16.6808 8.17569 14.5587C7.5516 14.4705 7.07157 13.9342 7.07157 13.2857V11.7857C7.07157 11.1487 7.53492 10.6198 8.143 10.5178V9.85718C8.143 6.54347 10.8293 3.85718 14.143 3.85718C17.4567 3.85718 20.143 6.54347 20.143 9.85718V10.5178C20.7511 10.6198 21.2144 11.1487 21.2144 11.7857V13.2857C21.2144 13.9342 20.7344 14.4705 20.1103 14.5587C19.8888 16.6808 18.5613 18.4739 16.7144 19.3512Z" fill="#D0C6AC"/>
<path d="M28.2857 3.85718H0V30H28.2857V3.85718Z" fill="#EDB98A"/>
<path fill-rule="evenodd" clip-rule="evenodd" d="M20.1431 12.3214V14.7857C20.1431 18.0994 17.4568 20.7857 14.1431 20.7857C10.8294 20.7857 8.14307 18.0994 8.14307 14.7857V12.3214V13.9286C8.14307 17.2423 10.8294 19.9286 14.1431 19.9286C17.4568 19.9286 20.1431 17.2423 20.1431 13.9286V12.3214Z" fill="black" fill-opacity="0.1"/>
</g>
<mask id="mask3_10_825" style="mask-type:alpha" maskUnits="userSpaceOnUse" x="3" y="21" width="22" height="9">
<path fill-rule="evenodd" clip-rule="evenodd" d="M19.4513 21.6783C22.5842 22.6594 24.8573 25.5849 24.8573 29.0412V30H3.42871V29.0412C3.42871 25.5425 5.75787 22.5878 8.95021 21.6431C8.91252 21.795 8.893 21.9505 8.893 22.1087C8.893 23.8531 11.2675 25.2672 14.1966 25.2672C17.1256 25.2672 19.5001 23.8531 19.5001 22.1087C19.5001 21.9627 19.4835 21.819 19.4513 21.6783Z" fill="white"/>
</mask>
<g mask="url(#mask3_10_825)">
<path fill-rule="evenodd" clip-rule="evenodd" d="M19.4513 21.6783C22.5842 22.6594 24.8573 25.5849 24.8573 29.0412V30H3.42871V29.0412C3.42871 25.5425 5.75787 22.5878 8.95021 21.6431C8.91252 21.795 8.893 21.9505 8.893 22.1087C8.893 23.8531 11.2675 25.2672 14.1966 25.2672C17.1256 25.2672 19.5001 23.8531 19.5001 22.1087C19.5001 21.9627 19.4835 21.819 19.4513 21.6783Z" fill="#E6E6E6"/>
<path d="M28.2857 18.2142H0V29.9999H28.2857V18.2142Z" fill="#FF5C5C"/>
</g>
<g opacity="0.6">
<path opacity="0.6" fill-rule="evenodd" clip-rule="evenodd" d="M13.0921 16.0828C13.0736 15.5352 12.6209 15.0854 12.0317 15C12.3924 15.2099 12.641 15.5888 12.641 16.0368C12.641 16.6441 12.0546 17.1691 11.3763 17.1691C11.37 17.1691 11.3637 17.1691 11.3574 17.169H11.3574C11.5029 17.2213 11.6617 17.25 11.828 17.25C12.3982 17.25 12.8803 16.9122 13.0381 16.4479C13.3032 16.6789 13.6999 16.8257 14.1431 16.8257C14.5864 16.8257 14.983 16.6789 15.2482 16.4479C15.406 16.9122 15.8881 17.25 16.4583 17.25C16.6246 17.25 16.7834 17.2213 16.9289 17.169C16.9226 17.1691 16.9162 17.1691 16.9099 17.1691C16.2317 17.1691 15.6452 16.6441 15.6452 16.0368C15.6452 15.5888 15.8938 15.2099 16.2545 15C15.6654 15.0854 15.2126 15.5352 15.1941 16.0828C14.9194 16.2688 14.5497 16.3827 14.1431 16.3827C13.7365 16.3827 13.3669 16.2688 13.0921 16.0828Z" fill="black" fill-opacity="0.6"/>
</g>
<path d="M10.1786 16.9286C10.7112 16.9286 11.1429 16.4968 11.1429 15.9643C11.1429 15.4317 10.7112 15 10.1786 15C9.64608 15 9.21436 15.4317 9.21436 15.9643C9.21436 16.4968 9.64608 16.9286 10.1786 16.9286Z" fill="#FF4646" fill-opacity="0.2"/>
<path d="M18.1074 16.9286C18.6399 16.9286 19.0716 16.4968 19.0716 15.9643C19.0716 15.4317 18.6399 15 18.1074 15C17.5748 15 17.1431 15.4317 17.1431 15.9643C17.1431 16.4968 17.5748 16.9286 18.1074 16.9286Z" fill="#FF4646" fill-opacity="0.2"/>
<path fill-rule="evenodd" clip-rule="evenodd" d="M12.8574 13.9286C12.8574 14.402 13.4331 14.7857 14.1431 14.7857C14.8532 14.7857 15.4289 14.402 15.4289 13.9286" fill="black" fill-opacity="0.16"/>
<mask id="mask4_10_825" style="mask-type:alpha" maskUnits="userSpaceOnUse" x="9" y="11" width="4" height="2">
<path fill-rule="evenodd" clip-rule="evenodd" d="M11.3574 12.5409C12.3871 12.5409 12.8574 13.0179 12.8574 12.2745C12.8574 11.5312 12.1858 11.0358 11.3574 11.0358C10.529 11.0358 9.85742 11.5312 9.85742 12.2745C9.85742 13.0179 10.3278 12.5409 11.3574 12.5409Z" fill="white"/>
</mask>
<g mask="url(#mask4_10_825)">
<path fill-rule="evenodd" clip-rule="evenodd" d="M11.3574 12.5409C12.3871 12.5409 12.8574 13.0179 12.8574 12.2745C12.8574 11.5312 12.1858 11.0358 11.3574 11.0358C10.529 11.0358 9.85742 11.5312 9.85742 12.2745C9.85742 13.0179 10.3278 12.5409 11.3574 12.5409Z" fill="white"/>
<path d="M11.3572 12.7501C11.7123 12.7501 12.0001 12.4623 12.0001 12.1072C12.0001 11.7522 11.7123 11.4644 11.3572 11.4644C11.0022 11.4644 10.7144 11.7522 10.7144 12.1072C10.7144 12.4623 11.0022 12.7501 11.3572 12.7501Z" fill="black" fill-opacity="0.7"/>
</g>
<mask id="mask5_10_825" style="mask-type:alpha" maskUnits="userSpaceOnUse" x="15" y="11" width="4" height="2">
<path fill-rule="evenodd" clip-rule="evenodd" d="M16.9287 12.5409C17.9584 12.5409 18.4287 13.0179 18.4287 12.2745C18.4287 11.5312 17.7571 11.0358 16.9287 11.0358C16.1003 11.0358 15.4287 11.5312 15.4287 12.2745C15.4287 13.0179 15.8991 12.5409 16.9287 12.5409Z" fill="white"/>
</mask>
<g mask="url(#mask5_10_825)">
<path fill-rule="evenodd" clip-rule="evenodd" d="M16.9287 12.5409C17.9584 12.5409 18.4287 13.0179 18.4287 12.2745C18.4287 11.5312 17.7571 11.0358 16.9287 11.0358C16.1003 11.0358 15.4287 11.5312 15.4287 12.2745C15.4287 13.0179 15.8991 12.5409 16.9287 12.5409Z" fill="white"/>
<path d="M16.9285 12.7501C17.2835 12.7501 17.5714 12.4623 17.5714 12.1072C17.5714 11.7522 17.2835 11.4644 16.9285 11.4644C16.5735 11.4644 16.2856 11.7522 16.2856 12.1072C16.2856 12.4623 16.5735 12.7501 16.9285 12.7501Z" fill="black" fill-opacity="0.7"/>
</g>
<path fill-rule="evenodd" clip-rule="evenodd" d="M12.8674 10.6205C12.8679 10.6196 12.8679 10.6196 12.8674 10.6205V10.6205ZM10.2091 9.32201C9.95543 9.29351 9.6887 9.37529 9.52059 9.58278C9.45737 9.66077 9.35414 9.84846 9.35892 9.94885C9.36072 9.987 9.38302 9.98911 9.47933 10.0121C9.65563 10.0541 9.96145 9.89273 10.1602 9.90796C10.4368 9.92913 10.7009 10.0575 10.9405 10.195C11.3517 10.431 11.8356 10.9279 12.3433 10.9019C12.3811 10.9 12.924 10.7156 12.8159 10.6102C12.7819 10.5584 12.4908 10.4894 12.4407 10.4644C12.208 10.3482 11.9728 10.2021 11.7504 10.066C11.2653 9.76903 10.7921 9.3869 10.2091 9.32201Z" fill="black" fill-opacity="0.6"/>
<path fill-rule="evenodd" clip-rule="evenodd" d="M15.432 10.6205C15.4316 10.6196 15.4316 10.6196 15.432 10.6205V10.6205ZM18.0973 9.322C18.351 9.29351 18.6177 9.37529 18.7858 9.58278C18.849 9.66077 18.9523 9.84846 18.9475 9.94885C18.9457 9.987 18.9234 9.98911 18.8271 10.0121C18.6508 10.0541 18.3449 9.89273 18.1462 9.90795C17.8696 9.92913 17.6055 10.0575 17.3659 10.195C16.9547 10.431 16.4708 10.9279 15.9631 10.9019C15.9253 10.9 15.3824 10.7156 15.4905 10.6102C15.5245 10.5584 15.8156 10.4894 15.8657 10.4644C16.0984 10.3482 16.3336 10.2021 16.556 10.066C17.0411 9.76902 17.5143 9.38689 18.0973 9.322Z" fill="black" fill-opacity="0.6"/>
<mask id="mask6_10_825" style="mask-type:alpha" maskUnits="userSpaceOnUse" x="0" y="0" width="29" height="30">
<path d="M28.2857 0H0V30H28.2857V0Z" fill="white"/>
</mask>
<g mask="url(#mask6_10_825)">
<path fill-rule="evenodd" clip-rule="evenodd" d="M20.1429 10.4933V10.5178C20.6952 10.6105 21.1282 11.0554 21.2029 11.6136C21.4768 11.3022 21.6429 10.8938 21.6429 10.4465C21.6429 10.2183 21.5996 10.0002 21.5209 9.7999C21.86 9.47779 22.0714 9.02254 22.0714 8.51791C22.0714 7.89262 21.7468 7.34315 21.2569 7.02885C21.3669 6.79838 21.4286 6.54034 21.4286 6.26791C21.4286 5.44989 20.873 4.76164 20.1186 4.55992C20.1346 4.453 20.1429 4.34357 20.1429 4.2322C20.1429 3.01914 19.1595 2.03577 17.9464 2.03577C17.6647 2.03577 17.3954 2.0888 17.1479 2.18542C16.7483 1.63996 16.103 1.28577 15.375 1.28577C14.9183 1.28577 14.4942 1.42513 14.1429 1.66366C13.7915 1.42513 13.3674 1.28577 12.9107 1.28577C12.1827 1.28577 11.5374 1.63996 11.1378 2.18542C10.8903 2.0888 10.621 2.03577 10.3393 2.03577C9.12623 2.03577 8.14286 3.01914 8.14286 4.2322C8.14286 4.34357 8.15115 4.453 8.16714 4.55992C7.41273 4.76164 6.85714 5.44989 6.85714 6.26791C6.85714 6.50274 6.90293 6.72687 6.98606 6.93187C6.40183 7.2204 6 7.82223 6 8.51791C6 9.10055 6.28185 9.61735 6.71665 9.93942C6.66864 10.1 6.64286 10.2702 6.64286 10.4465C6.64286 10.8938 6.80896 11.3022 7.08285 11.6136C7.15756 11.0554 7.5905 10.6105 8.14286 10.5178V10.4933C8.14582 10.4955 8.1488 10.4978 8.15179 10.5001C8.46278 5.44854 13.3449 7.25816 14.1429 4.42893C14.9408 7.25816 19.8229 5.44854 20.1339 10.5001C20.1369 10.4978 20.1399 10.4955 20.1429 10.4933ZM11.5714 19.3512V19.8013C11.4841 19.8146 11.3946 19.8215 11.3036 19.8215C10.5728 19.8215 9.94552 19.378 9.67625 18.7455C8.75932 18.6803 8.03571 17.9157 8.03571 16.9822C8.03571 16.8246 8.05634 16.6718 8.09503 16.5264C7.37759 16.3012 6.85714 15.6311 6.85714 14.8393C6.85714 14.4381 6.99078 14.0682 7.21598 13.7715C7.40213 14.1291 7.75143 14.3882 8.16521 14.4501C8.35198 16.6195 9.69313 18.4589 11.5714 19.3512ZM16.7143 19.3512V19.8013C16.8016 19.8146 16.8911 19.8215 16.9821 19.8215C17.713 19.8215 18.3402 19.378 18.6095 18.7455C19.5264 18.6803 20.25 17.9157 20.25 16.9822C20.25 16.8246 20.2294 16.6718 20.1907 16.5264C20.9081 16.3012 21.4286 15.6311 21.4286 14.8393C21.4286 14.4381 21.2949 14.0682 21.0697 13.7715C20.8836 14.1291 20.5343 14.3882 20.1205 14.4501C19.9337 16.6195 18.5926 18.4589 16.7143 19.3512Z" fill="#1F3540"/>
<g opacity="0.9" filter="url(#filter0_d_10_825)">
<path opacity="0.9" d="M19.022 6.28534C19.022 6.28534 18.5357 7.15339 19.6868 7.60928C20.4391 7.90724 21.1448 7.58062 21.1448 7.58062C21.1448 7.58062 20.8491 6.55436 19.9839 6.21171C19.3067 5.94354 19.022 6.28534 19.022 6.28534Z" fill="#5DD362"/>
<path opacity="0.9" d="M21.1521 7.54768C21.1521 7.54768 20.8598 6.54506 20.0048 6.2103C19.5587 6.03564 19.2833 6.12768 19.1469 6.20749C18.9865 5.95967 18.9631 5.78024 18.9653 5.7737C18.9667 5.74465 18.9414 5.71993 18.9116 5.70829C18.9042 5.70538 18.8893 5.69956 18.8797 5.70318C18.8381 5.7017 18.8099 5.73509 18.8137 5.77359C18.8145 5.79611 18.8788 6.22835 19.3643 6.68488C20.0539 7.38416 21.1521 7.54768 21.1521 7.54768Z" fill="#42BC53"/>
</g>
<g filter="url(#filter1_d_10_825)">
<path fill-rule="evenodd" clip-rule="evenodd" d="M17.6684 2.85259C18.2518 2.50533 18.5232 1.64669 18.5232 1.64669C18.5232 1.64669 17.7559 1.25544 16.8898 1.68972C16.0237 2.124 16.1496 2.80419 16.1496 2.80419C16.1496 2.80419 16.8269 3.35355 17.6684 2.85259Z" fill="#5DD362"/>
<path fill-rule="evenodd" clip-rule="evenodd" d="M15.7359 3.20309C15.7408 3.21165 15.7456 3.22022 15.7599 3.22319C15.8029 3.25481 15.8741 3.24693 15.9117 3.20183C16.0295 3.07509 16.1425 2.9625 16.2747 2.86145C16.4754 2.9939 17.0287 3.23742 17.6811 2.85137C18.258 2.51007 18.5264 1.66617 18.5264 1.66617C18.5264 1.66617 18.4031 1.69346 18.1945 1.74839C18.1376 1.75924 16.6576 2.06402 15.7587 3.08686C15.7257 3.1178 15.7166 3.16884 15.7359 3.20309Z" fill="#42BC53"/>
</g>
<g filter="url(#filter2_d_10_825)">
<path fill-rule="evenodd" clip-rule="evenodd" d="M9.61161 5.87861C9.02829 6.22587 8.7568 7.08452 8.7568 7.08452C8.7568 7.08452 9.52413 7.47576 10.3902 7.04148C11.2563 6.60719 11.1305 5.92701 11.1305 5.92701C11.1305 5.92701 10.4531 5.37765 9.61161 5.87861Z" fill="#5DD362"/>
<path fill-rule="evenodd" clip-rule="evenodd" d="M11.5441 5.52798C11.5393 5.51942 11.5345 5.51086 11.5202 5.50789C11.4771 5.47626 11.4059 5.48414 11.3683 5.52924C11.2506 5.65599 11.1375 5.76857 11.0053 5.86962C10.8046 5.73718 10.2514 5.49366 9.59889 5.87972C9.02207 6.22101 8.75361 7.06491 8.75361 7.06491C8.75361 7.06491 8.87693 7.03762 9.08554 6.98269C9.14246 6.97184 10.6224 6.66705 11.5213 5.64422C11.5543 5.61327 11.5634 5.56223 11.5441 5.52798Z" fill="#42BC53"/>
</g>
<g filter="url(#filter3_d_10_825)">
<path d="M7.24011 5.35241C7.15057 5.23356 7.11267 5.08694 7.13336 4.93955C7.15404 4.79215 7.23095 4.66169 7.34971 4.57217C7.38176 4.54798 7.42405 4.52817 7.47206 4.5113C7.42348 4.49618 7.38055 4.47783 7.34769 4.45482C7.09607 4.27864 7.03465 3.93055 7.21087 3.67887C7.38709 3.4272 7.7352 3.36587 7.98682 3.54205C8.01968 3.56506 8.0516 3.59913 8.08248 3.63964C8.08186 3.58872 8.08606 3.54224 8.09783 3.50386C8.14132 3.36155 8.23769 3.24464 8.36909 3.17484C8.50047 3.10496 8.65123 3.09051 8.79356 3.13396C9.08735 3.22381 9.25327 3.53588 9.1635 3.82964C9.15179 3.86784 9.12988 3.90842 9.10108 3.95008C9.14908 3.93388 9.19419 3.92406 9.23412 3.92338C9.54129 3.91802 9.79554 4.16353 9.80095 4.47073C9.80298 4.5927 9.76563 4.70627 9.70051 4.79927C9.60157 4.94046 9.43876 5.03429 9.25357 5.03747C9.21365 5.03816 9.16827 5.02989 9.11976 5.01542C9.14995 5.05605 9.17324 5.09586 9.18625 5.13362C9.24656 5.30878 9.2142 5.49379 9.11528 5.63507C9.05016 5.72807 8.95614 5.80212 8.84085 5.84178C8.55037 5.9418 8.2327 5.78678 8.13273 5.49633C8.11971 5.45858 8.11356 5.41286 8.11232 5.36218C8.08302 5.40349 8.05235 5.43801 8.02049 5.46203C7.90161 5.55162 7.75502 5.58947 7.60763 5.56878C7.46015 5.54812 7.32965 5.47125 7.24011 5.35241Z" fill="#4ACAD3"/>
<path fill-rule="evenodd" clip-rule="evenodd" d="M8.65941 4.0328C8.68437 3.95105 8.6384 3.86453 8.55666 3.83956C8.47492 3.81459 8.38839 3.86056 8.36342 3.94231C8.33846 4.02405 8.38828 4.39032 8.38828 4.39032C8.38828 4.39032 8.63444 4.11454 8.65941 4.0328ZM8.8997 4.65395C8.98517 4.65244 9.05325 4.58199 9.05173 4.49651C9.05022 4.41104 8.97977 4.34296 8.89429 4.34448C8.80882 4.34599 8.47585 4.50658 8.47585 4.50658C8.47585 4.50658 8.81426 4.65542 8.8997 4.65395ZM8.25067 4.4377C8.25067 4.4377 8.06444 4.11837 7.99441 4.06933C7.92438 4.0203 7.8279 4.03731 7.77887 4.10734C7.72983 4.17737 7.74684 4.27385 7.81687 4.32288C7.8869 4.37192 8.25067 4.4377 8.25067 4.4377ZM8.57991 5.17034C8.66075 5.14253 8.70367 5.05446 8.67586 4.97363C8.64805 4.89279 8.39238 4.6258 8.39238 4.6258C8.39238 4.6258 8.35536 4.9936 8.38317 5.07444C8.41101 5.15523 8.49908 5.19815 8.57991 5.17034ZM8.00998 4.96027C8.07825 4.90885 8.25321 4.58322 8.25321 4.58322C8.25321 4.58322 7.89199 4.66167 7.82372 4.71309C7.75544 4.76451 7.7418 4.86159 7.79326 4.92981C7.84468 4.99809 7.94176 5.01173 8.00998 4.96027Z" fill="white"/>
</g>
<g filter="url(#filter4_d_10_825)">
<path d="M12.4848 5.26052L12.5125 5.01257L12.7604 4.98481C13.0655 4.95056 13.308 4.75801 13.4091 4.46939C13.5232 4.14343 13.416 3.78808 13.1362 3.58207L12.9354 3.43424L13.0353 3.20562C13.1669 2.90494 13.1044 2.57396 12.8723 2.34188C12.6402 2.10981 12.3092 2.04732 12.0085 2.17884L11.7799 2.27879L11.6321 2.07793C11.426 1.79846 11.0706 1.69094 10.7447 1.80513C10.4562 1.90622 10.2635 2.14872 10.2294 2.45377L10.2016 2.70166L9.95373 2.72942C9.64862 2.7636 9.40613 2.95628 9.30503 3.24478C9.2046 3.53152 9.27309 3.84063 9.48383 4.05136L9.48389 4.05143C9.51268 4.08021 9.54425 4.10731 9.57783 4.13204L9.77869 4.27992L9.67869 4.50854C9.54729 4.80928 9.60977 5.14027 9.84185 5.37234C10.0739 5.60441 10.4049 5.6669 10.7056 5.5355L10.9343 5.4355L11.0822 5.63635C11.2876 5.91607 11.6436 6.02334 11.9696 5.90922C12.2581 5.808 12.4507 5.56556 12.4848 5.26052Z" fill="#FDB599"/>
<path fill-rule="evenodd" clip-rule="evenodd" d="M11.6656 4.41327C11.6877 4.49557 11.6388 4.58018 11.5565 4.60225C11.4742 4.62431 11.3895 4.5754 11.3675 4.49315C11.3455 4.4109 11.3569 3.85712 11.3569 3.85712C11.3569 3.85712 11.0898 4.34235 11.0296 4.4026C10.9694 4.46278 10.8716 4.46284 10.8114 4.4026C10.7511 4.34235 10.7512 4.24459 10.8114 4.18441C10.8716 4.12416 11.3569 3.85712 11.3569 3.85712C11.3569 3.85712 10.8031 3.86851 10.7208 3.84645C10.6385 3.82439 10.5897 3.73978 10.6117 3.65747C10.6338 3.57516 10.7184 3.52631 10.8007 3.54837C10.883 3.57044 11.3569 3.85712 11.3569 3.85712C11.3569 3.85712 11.0702 3.38327 11.0481 3.30097C11.0261 3.21866 11.0749 3.13405 11.1572 3.11199C11.2395 3.08993 11.3241 3.13878 11.3462 3.22108C11.3683 3.30339 11.3569 3.85712 11.3569 3.85712C11.3569 3.85712 11.6239 3.37188 11.6842 3.31163C11.7444 3.25139 11.8421 3.25139 11.9024 3.31163C11.9626 3.37188 11.9626 3.46958 11.9024 3.52983C11.8421 3.59007 11.3569 3.85712 11.3569 3.85712C11.3569 3.85712 11.9107 3.84578 11.9929 3.86778C12.0752 3.88978 12.1241 3.97446 12.102 4.05676C12.0799 4.13907 11.9953 4.18792 11.913 4.16586C11.8307 4.1438 11.3569 3.85712 11.3569 3.85712C11.3569 3.85712 11.6435 4.3309 11.6656 4.41327Z" fill="white"/>
</g>
<g filter="url(#filter5_d_10_825)">
<path d="M20.3311 5.98095C20.4586 5.81182 20.5125 5.60317 20.4831 5.39341C20.4536 5.18366 20.3442 4.99801 20.1752 4.8706C20.1296 4.83619 20.0694 4.80799 20.0011 4.78399C20.0702 4.76246 20.1313 4.73636 20.178 4.70362C20.5361 4.45289 20.6235 3.95753 20.3728 3.59938C20.122 3.24123 19.6266 3.15395 19.2685 3.40468C19.2218 3.43742 19.1763 3.48589 19.1324 3.54355C19.1333 3.47109 19.1273 3.40495 19.1105 3.35032C19.0487 3.14781 18.9115 2.98143 18.7245 2.88211C18.5376 2.78266 18.323 2.7621 18.1205 2.82392C17.7024 2.95179 17.4663 3.39588 17.594 3.81393C17.6107 3.8683 17.6419 3.92604 17.6828 3.98533C17.6145 3.96228 17.5503 3.9483 17.4935 3.94733C17.0564 3.9397 16.6946 4.28908 16.6869 4.72626C16.684 4.89982 16.7371 5.06145 16.8298 5.19379C16.9706 5.39472 17.2023 5.52824 17.4658 5.53277C17.5227 5.53374 17.5872 5.52198 17.6563 5.50139C17.6133 5.55921 17.5802 5.61587 17.5616 5.66959C17.4758 5.91886 17.5219 6.18215 17.6626 6.38319C17.7553 6.51554 17.8891 6.62092 18.0532 6.67736C18.4665 6.8197 18.9186 6.59909 19.0609 6.18576C19.0794 6.13204 19.0882 6.06697 19.0899 5.99486C19.1316 6.05364 19.1753 6.10277 19.2206 6.13695C19.3898 6.26444 19.5984 6.3183 19.8081 6.28887C20.018 6.25946 20.2037 6.15007 20.3311 5.98095Z" fill="#F7D30C"/>
<path fill-rule="evenodd" clip-rule="evenodd" d="M18.3113 4.10302C18.2757 3.98669 18.3412 3.86356 18.4575 3.82803C18.5738 3.7925 18.697 3.85792 18.7325 3.97425C18.768 4.09057 18.6971 4.6118 18.6971 4.6118C18.6971 4.6118 18.3468 4.21935 18.3113 4.10302ZM17.9693 4.98698C17.8477 4.98482 17.7508 4.88456 17.753 4.76292C17.7551 4.64129 17.8554 4.54441 17.977 4.54657C18.0987 4.54872 18.5725 4.77725 18.5725 4.77725C18.5725 4.77725 18.0909 4.98906 17.9693 4.98698ZM18.8929 4.67923C18.8929 4.67923 19.158 4.2248 19.2576 4.15502C19.3573 4.08524 19.4946 4.10945 19.5644 4.2091C19.6341 4.30876 19.6099 4.44605 19.5103 4.51583C19.4106 4.58562 18.8929 4.67923 18.8929 4.67923ZM18.4244 5.72183C18.3094 5.68225 18.2483 5.55693 18.2879 5.44189C18.3274 5.32686 18.6913 4.94691 18.6913 4.94691C18.6913 4.94691 18.744 5.47032 18.7044 5.58536C18.6648 5.70033 18.5394 5.76141 18.4244 5.72183ZM19.2355 5.42289C19.1383 5.34971 18.8893 4.88631 18.8893 4.88631C18.8893 4.88631 19.4034 4.99796 19.5005 5.07113C19.5977 5.1443 19.6171 5.28246 19.5439 5.37954C19.4707 5.4767 19.3325 5.49611 19.2355 5.42289Z" fill="white"/>
</g>
<g filter="url(#filter6_d_10_825)">
<path d="M18.0148 3.37997C18.2102 2.63176 17.3725 2.04985 17.0555 1.86018C17.1106 1.54583 17.2347 0.514358 16.5768 0.133486C15.9227 -0.245171 15.0989 0.369601 14.8501 0.577933C14.8286 0.564508 14.8034 0.549203 14.7747 0.532584C14.4462 0.342394 13.6211 -0.0407668 13.0553 0.50747C12.4505 1.09334 12.8075 2.00778 12.9434 2.29651C12.712 2.51196 12.045 3.21708 12.32 3.96686C12.3956 4.17354 12.5355 4.3371 12.7359 4.45312C13.1678 4.70314 13.7653 4.66282 13.9919 4.63599C14.0984 4.83746 14.4023 5.35515 14.8371 5.60683C15.016 5.71042 15.1987 5.7582 15.3804 5.74878C16.1202 5.71042 16.4428 4.67788 16.5236 4.36529C16.8301 4.32285 17.8185 4.12975 18.0148 3.37997Z" fill="#FF7398"/>
<path fill-rule="evenodd" clip-rule="evenodd" d="M15.189 2.74317C15.189 2.74317 15.5838 3.62043 15.2269 3.67647C14.8696 3.7322 15.0704 2.75587 15.0704 2.75587C15.0704 2.75587 14.3084 3.39953 14.1972 3.08038C14.0858 2.76117 15.0223 2.64668 15.0223 2.64668C15.0223 2.64668 14.1665 2.1439 14.4444 1.91421C14.7223 1.68451 15.1104 2.56688 15.1104 2.56688C15.1104 2.56688 15.3188 1.61126 15.6269 1.78965C15.935 1.96803 15.2136 2.62663 15.2136 2.62663C15.2136 2.62663 16.1647 2.52059 16.1103 2.87863C16.0562 3.23669 15.189 2.74317 15.189 2.74317Z" fill="white"/>
</g>
<path d="M20.5715 13.9286C20.5715 13.8694 20.5235 13.8214 20.4643 13.8214C20.4051 13.8214 20.3572 13.8694 20.3572 13.9286V17.8928C20.3572 17.952 20.4051 18 20.4643 18C20.5235 18 20.5715 17.952 20.5715 17.8928V13.9286Z" fill="#E6E6E6"/>
<path d="M21.5357 17.7857H20.5253L21.2143 15.9642H20.0357L19.3928 18.2142H20.3181L19.8214 20.2499L21.5357 17.7857Z" fill="#9177FF"/>
<mask id="mask7_10_825" style="mask-type:alpha" maskUnits="userSpaceOnUse" x="10" y="14" width="8" height="3">
<path fill-rule="evenodd" clip-rule="evenodd" d="M14.1427 15.7328C14.0847 15.8152 14.0102 15.8838 13.9233 15.9309C12.9695 16.4475 11.9869 15.9998 11.4511 16.0317C11.1922 16.0472 10.858 16.223 10.7374 16.037C10.6047 15.8321 11.0431 14.7022 12.0774 14.514C12.8284 14.3774 13.8748 14.5288 14.1427 14.8862C14.4107 14.5288 15.457 14.3774 16.208 14.514C17.2423 14.7022 17.6807 15.8321 17.548 16.037C17.4274 16.223 17.0933 16.0472 16.8343 16.0317C16.2985 15.9998 15.316 16.4475 14.3622 15.9309C14.2752 15.8838 14.2007 15.8152 14.1427 15.7328Z" fill="white"/>
</mask>
<g mask="url(#mask7_10_825)">
<path fill-rule="evenodd" clip-rule="evenodd" d="M14.1427 15.7328C14.0847 15.8152 14.0102 15.8838 13.9233 15.9309C12.9695 16.4475 11.9869 15.9998 11.4511 16.0317C11.1922 16.0472 10.858 16.223 10.7374 16.037C10.6047 15.8321 11.0431 14.7022 12.0774 14.514C12.8284 14.3774 13.8748 14.5288 14.1427 14.8862C14.4107 14.5288 15.457 14.3774 16.208 14.514C17.2423 14.7022 17.6807 15.8321 17.548 16.037C17.4274 16.223 17.0933 16.0472 16.8343 16.0317C16.2985 15.9998 15.316 16.4475 14.3622 15.9309C14.2752 15.8838 14.2007 15.8152 14.1427 15.7328Z" fill="#28354B"/>
<path d="M30.0001 7.71423H1.71436V33.8571H30.0001V7.71423Z" fill="#ECDCBF"/>
</g>
<g filter="url(#filter7_d_10_825)">
<path fill-rule="evenodd" clip-rule="evenodd" d="M12.4298 10.6368C12.6989 10.6394 12.826 10.6849 12.8719 10.9705C12.9183 11.2598 12.8731 11.585 12.8196 11.87C12.7379 12.3051 12.602 12.7314 12.2856 13.0494C12.119 13.2168 11.9157 13.3503 11.6995 13.4415C11.5847 13.4899 11.4635 13.5248 11.3423 13.5514C11.3069 13.5591 11.0044 13.6015 11.1899 13.58C10.7569 13.6303 10.2872 13.6283 9.92566 13.3477C9.52494 13.0369 9.25051 12.5449 9.12985 12.0549C9.05925 11.7682 8.9109 11.0824 9.18196 10.8532C9.49245 10.5905 12.4298 10.6368 12.4298 10.6368Z" fill="black" fill-opacity="0.7"/>
<path style="mix-blend-mode:screen" fill-rule="evenodd" clip-rule="evenodd" d="M12.4298 10.6368C12.6989 10.6394 12.826 10.6849 12.8719 10.9705C12.9183 11.2598 12.8731 11.585 12.8196 11.87C12.7379 12.3051 12.602 12.7314 12.2856 13.0494C12.119 13.2168 11.9157 13.3503 11.6995 13.4415C11.5847 13.4899 11.4635 13.5248 11.3423 13.5514C11.3069 13.5591 11.0044 13.6015 11.1899 13.58C10.7569 13.6303 10.2872 13.6283 9.92566 13.3477C9.52494 13.0369 9.25051 12.5449 9.12985 12.0549C9.05925 11.7682 8.9109 11.0824 9.18196 10.8532C9.49245 10.5905 12.4298 10.6368 12.4298 10.6368Z" fill="url(#paint0_linear_10_825)"/>
<path fill-rule="evenodd" clip-rule="evenodd" d="M15.8485 10.6366C15.5795 10.6392 15.4524 10.6847 15.4065 10.9703C15.3601 11.2596 15.4052 11.5848 15.4588 11.8697C15.5405 12.3048 15.6764 12.7311 15.9928 13.0491C16.1594 13.2166 16.3627 13.3501 16.5789 13.4413C16.6937 13.4896 16.8149 13.5246 16.9361 13.5511C16.9715 13.5588 17.274 13.6013 17.0885 13.5797C17.5214 13.63 17.9911 13.628 18.3527 13.3475C18.7535 13.0366 19.0279 12.5447 19.1485 12.0547C19.2191 11.7679 19.3675 11.0822 19.0964 10.853C18.7859 10.5903 15.8485 10.6366 15.8485 10.6366Z" fill="black" fill-opacity="0.7"/>
<path style="mix-blend-mode:screen" fill-rule="evenodd" clip-rule="evenodd" d="M15.8485 10.6366C15.5795 10.6392 15.4524 10.6847 15.4065 10.9703C15.3601 11.2596 15.4052 11.5848 15.4588 11.8697C15.5405 12.3048 15.6764 12.7311 15.9928 13.0491C16.1594 13.2166 16.3627 13.3501 16.5789 13.4413C16.6937 13.4896 16.8149 13.5246 16.9361 13.5511C16.9715 13.5588 17.274 13.6013 17.0885 13.5797C17.5214 13.63 17.9911 13.628 18.3527 13.3475C18.7535 13.0366 19.0279 12.5447 19.1485 12.0547C19.2191 11.7679 19.3675 11.0822 19.0964 10.853C18.7859 10.5903 15.8485 10.6366 15.8485 10.6366Z" fill="url(#paint1_linear_10_825)"/>
<path fill-rule="evenodd" clip-rule="evenodd" d="M12.3482 10.7437C12.6023 10.7461 12.7224 10.7883 12.7657 11.0533C12.8095 11.3218 12.7669 11.6236 12.7163 11.8879C12.6391 12.2917 12.5108 12.6872 12.2119 12.9823C12.0545 13.1377 11.8625 13.2615 11.6583 13.3461C11.5499 13.391 11.4354 13.4234 11.3209 13.4481C11.2874 13.4552 11.0017 13.4946 11.1769 13.4746C10.768 13.5213 10.3243 13.5194 9.9828 13.2591C9.60429 12.9707 9.34507 12.5142 9.2311 12.0595C9.16441 11.7935 9.02428 11.1572 9.28032 10.9445C9.5736 10.7008 12.3482 10.7437 12.3482 10.7437ZM9.77338 10.0168C9.19048 10.0368 8.80147 10.1393 8.51397 10.7216C7.98708 11.7889 8.88891 13.3894 9.89493 13.8256C11.071 14.3356 12.3849 13.7712 13.0067 12.7506C13.336 12.2102 13.5025 11.3917 13.4917 10.7682C13.4781 9.97241 12.9222 9.95034 12.2689 9.96784L9.77338 10.0168Z" fill="#252C2F"/>
<path fill-rule="evenodd" clip-rule="evenodd" d="M15.9302 10.7434C15.6761 10.7459 15.556 10.7881 15.5127 11.0531C15.4688 11.3215 15.5115 11.6233 15.562 11.8877C15.6393 12.2914 15.7676 12.6869 16.0665 12.982C16.2239 13.1374 16.4159 13.2612 16.6201 13.3459C16.7285 13.3907 16.843 13.4232 16.9575 13.4478C16.991 13.455 17.2766 13.4944 17.1014 13.4743C17.5104 13.521 17.954 13.5191 18.2956 13.2589C18.6741 12.9704 18.9333 12.514 19.0473 12.0593C19.114 11.7932 19.2541 11.157 18.9981 10.9442C18.7048 10.7005 15.9302 10.7434 15.9302 10.7434ZM18.505 10.0165C19.0879 10.0366 19.4769 10.139 19.7644 10.7214C20.2913 11.7886 19.3895 13.3892 18.3835 13.8254C17.2073 14.3353 15.8935 13.7709 15.2716 12.7503C14.9424 12.2099 14.7759 11.3914 14.7866 10.7679C14.8003 9.97214 15.3562 9.95007 16.0095 9.96761L18.505 10.0165Z" fill="#252C2F"/>
<path fill-rule="evenodd" clip-rule="evenodd" d="M8.80678 10.4921C8.44122 10.5126 8.02347 10.5176 7.68105 10.6756C7.3184 10.843 7.26236 11.222 7.71953 11.2742C7.92543 11.2977 8.13156 11.2588 8.33431 11.2226C8.50035 11.193 8.72589 11.2026 8.8828 11.1391C9.1752 11.0209 9.15643 10.4721 8.80678 10.4921Z" fill="#252C2F"/>
<path fill-rule="evenodd" clip-rule="evenodd" d="M19.4715 10.4921C19.8371 10.5126 20.2548 10.5176 20.5972 10.6756C20.9599 10.843 21.0159 11.222 20.5588 11.2742C20.3529 11.2977 20.1467 11.2588 19.944 11.2226C19.7779 11.193 19.5524 11.2026 19.3955 11.1391C19.1031 11.0209 19.1219 10.4721 19.4715 10.4921Z" fill="#252C2F"/>
<path fill-rule="evenodd" clip-rule="evenodd" d="M15.226 10.7156C15.0175 10.4692 14.474 10.3269 14.1312 10.3269C13.7884 10.3269 13.2609 10.4692 13.0524 10.7156C12.9472 10.8399 12.9436 11.0061 13.1259 11.084C13.3528 11.181 13.5554 11.0051 13.7371 10.913C13.9694 10.7953 14.3263 10.8083 14.5413 10.913C14.7243 11.0023 14.9255 11.181 15.1525 11.084C15.3347 11.0061 15.3312 10.8399 15.226 10.7156Z" fill="#252C2F"/>
</g>
</g>
</g>
<defs>
<filter id="filter0_d_10_825" x="14.8135" y="3.70203" width="10.3386" height="10.0326" filterUnits="userSpaceOnUse" color-interpolation-filters="sRGB">
<feFlood flood-opacity="0" result="BackgroundImageFix"/>
<feColorMatrix in="SourceAlpha" type="matrix" values="0 0 0 0 0 0 0 0 0 0 0 0 0 0 0 0 0 0 127 0" result="hardAlpha"/>
<feOffset dy="2"/>
<feGaussianBlur stdDeviation="2"/>
<feColorMatrix type="matrix" values="0 0 0 0 0 0 0 0 0 0 0 0 0 0 0 0 0 0 0.2 0"/>
<feBlend mode="normal" in2="BackgroundImageFix" result="effect1_dropShadow_10_825"/>
<feBlend mode="normal" in="SourceGraphic" in2="effect1_dropShadow_10_825" result="shape"/>
</filter>
<filter id="filter1_d_10_825" x="11.7258" y="-0.515137" width="10.8005" height="9.75745" filterUnits="userSpaceOnUse" color-interpolation-filters="sRGB">
<feFlood flood-opacity="0" result="BackgroundImageFix"/>
<feColorMatrix in="SourceAlpha" type="matrix" values="0 0 0 0 0 0 0 0 0 0 0 0 0 0 0 0 0 0 127 0" result="hardAlpha"/>
<feOffset dy="2"/>
<feGaussianBlur stdDeviation="2"/>
<feColorMatrix type="matrix" values="0 0 0 0 0 0 0 0 0 0 0 0 0 0 0 0 0 0 0.2 0"/>
<feBlend mode="normal" in2="BackgroundImageFix" result="effect1_dropShadow_10_825"/>
<feBlend mode="normal" in="SourceGraphic" in2="effect1_dropShadow_10_825" result="shape"/>
</filter>
<filter id="filter2_d_10_825" x="4.75366" y="3.48877" width="10.8005" height="9.75757" filterUnits="userSpaceOnUse" color-interpolation-filters="sRGB">
<feFlood flood-opacity="0" result="BackgroundImageFix"/>
<feColorMatrix in="SourceAlpha" type="matrix" values="0 0 0 0 0 0 0 0 0 0 0 0 0 0 0 0 0 0 127 0" result="hardAlpha"/>
<feOffset dy="2"/>
<feGaussianBlur stdDeviation="2"/>
<feColorMatrix type="matrix" values="0 0 0 0 0 0 0 0 0 0 0 0 0 0 0 0 0 0 0.2 0"/>
<feBlend mode="normal" in2="BackgroundImageFix" result="effect1_dropShadow_10_825"/>
<feBlend mode="normal" in="SourceGraphic" in2="effect1_dropShadow_10_825" result="shape"/>
</filter>
<filter id="filter3_d_10_825" x="3.11035" y="1.10938" width="10.6907" height="10.7628" filterUnits="userSpaceOnUse" color-interpolation-filters="sRGB">
<feFlood flood-opacity="0" result="BackgroundImageFix"/>
<feColorMatrix in="SourceAlpha" type="matrix" values="0 0 0 0 0 0 0 0 0 0 0 0 0 0 0 0 0 0 127 0" result="hardAlpha"/>
<feOffset dy="2"/>
<feGaussianBlur stdDeviation="2"/>
<feColorMatrix type="matrix" values="0 0 0 0 0 0 0 0 0 0 0 0 0 0 0 0 0 0 0.2 0"/>
<feBlend mode="normal" in2="BackgroundImageFix" result="effect1_dropShadow_10_825"/>
<feBlend mode="normal" in="SourceGraphic" in2="effect1_dropShadow_10_825" result="shape"/>
</filter>
<filter id="filter4_d_10_825" x="5.25952" y="-0.239868" width="12.1946" height="12.1941" filterUnits="userSpaceOnUse" color-interpolation-filters="sRGB">
<feFlood flood-opacity="0" result="BackgroundImageFix"/>
<feColorMatrix in="SourceAlpha" type="matrix" values="0 0 0 0 0 0 0 0 0 0 0 0 0 0 0 0 0 0 127 0" result="hardAlpha"/>
<feOffset dy="2"/>
<feGaussianBlur stdDeviation="2"/>
<feColorMatrix type="matrix" values="0 0 0 0 0 0 0 0 0 0 0 0 0 0 0 0 0 0 0.2 0"/>
<feBlend mode="normal" in2="BackgroundImageFix" result="effect1_dropShadow_10_825"/>
<feBlend mode="normal" in="SourceGraphic" in2="effect1_dropShadow_10_825" result="shape"/>
</filter>
<filter id="filter5_d_10_825" x="12.6868" y="0.78894" width="11.8291" height="11.9316" filterUnits="userSpaceOnUse" color-interpolation-filters="sRGB">
<feFlood flood-opacity="0" result="BackgroundImageFix"/>
<feColorMatrix in="SourceAlpha" type="matrix" values="0 0 0 0 0 0 0 0 0 0 0 0 0 0 0 0 0 0 127 0" result="hardAlpha"/>
<feOffset dy="2"/>
<feGaussianBlur stdDeviation="2"/>
<feColorMatrix type="matrix" values="0 0 0 0 0 0 0 0 0 0 0 0 0 0 0 0 0 0 0.2 0"/>
<feBlend mode="normal" in2="BackgroundImageFix" result="effect1_dropShadow_10_825"/>
<feBlend mode="normal" in="SourceGraphic" in2="effect1_dropShadow_10_825" result="shape"/>
</filter>
<filter id="filter6_d_10_825" x="8.25464" y="-1.98718" width="13.7893" height="13.7372" filterUnits="userSpaceOnUse" color-interpolation-filters="sRGB">
<feFlood flood-opacity="0" result="BackgroundImageFix"/>
<feColorMatrix in="SourceAlpha" type="matrix" values="0 0 0 0 0 0 0 0 0 0 0 0 0 0 0 0 0 0 127 0" result="hardAlpha"/>
<feOffset dy="2"/>
<feGaussianBlur stdDeviation="2"/>
<feColorMatrix type="matrix" values="0 0 0 0 0 0 0 0 0 0 0 0 0 0 0 0 0 0 0.2 0"/>
<feBlend mode="normal" in2="BackgroundImageFix" result="effect1_dropShadow_10_825"/>
<feBlend mode="normal" in="SourceGraphic" in2="effect1_dropShadow_10_825" result="shape"/>
</filter>
<filter id="filter7_d_10_825" x="3.39282" y="7.96423" width="21.4927" height="12.0521" filterUnits="userSpaceOnUse" color-interpolation-filters="sRGB">
<feFlood flood-opacity="0" result="BackgroundImageFix"/>
<feColorMatrix in="SourceAlpha" type="matrix" values="0 0 0 0 0 0 0 0 0 0 0 0 0 0 0 0 0 0 127 0" result="hardAlpha"/>
<feOffset dy="2"/>
<feGaussianBlur stdDeviation="2"/>
<feColorMatrix type="matrix" values="0 0 0 0 0 0 0 0 0 0 0 0 0 0 0 0 0 0 0.1 0"/>
<feBlend mode="normal" in2="BackgroundImageFix" result="effect1_dropShadow_10_825"/>
<feBlend mode="normal" in="SourceGraphic" in2="effect1_dropShadow_10_825" result="shape"/>
</filter>
<linearGradient id="paint0_linear_10_825" x1="10.9583" y1="10.6337" x2="10.9583" y2="12.7286" gradientUnits="userSpaceOnUse">
<stop stop-color="white" stop-opacity="0.5"/>
<stop offset="1" stop-opacity="0.5"/>
</linearGradient>
<linearGradient id="paint1_linear_10_825" x1="17.3201" y1="10.6334" x2="17.3201" y2="13.6048" gradientUnits="userSpaceOnUse">
<stop stop-color="white" stop-opacity="0.5"/>
<stop offset="0.705058" stop-opacity="0.5"/>
</linearGradient>
</defs>
</svg>
